<svg width="39" height="50" viewBox="0 0 39 50" fill="none" xmlns="http://www.w3.org/2000/svg">
<path d="M10.5244 34.7249C11.3494 34.7249 12.0244 34.0499 12.0244 33.2249V22.1249C12.0244 16.6999 16.4494 12.2749 21.8744 12.2749H22.0744C24.6744 12.2749 27.1244 13.2749 28.9744 15.1249C29.5744 15.6999 30.5244 15.6999 31.0994 15.0999C31.6744 14.4999 31.6744 13.5499 31.0744 12.9749C28.6494 10.5749 25.4494 9.27489 22.0744 9.27489H21.8744C14.7994 9.27489 9.02441 15.0499 9.02441 22.1249V33.2249C9.02441 34.0499 9.67441 34.7249 10.5244 34.7249Z" fill="url(#paint0_linear_816_957)"/>
<path d="M7.27485 36.0505C6.69985 36.6505 6.69985 37.6005 7.29985 38.1755C9.72485 40.5756 12.9249 41.8756 16.2999 41.8756H16.4999C23.5749 41.8756 29.3499 36.1005 29.3499 29.0255V17.9505C29.3499 17.1255 28.6749 16.4505 27.8499 16.4505C27.0249 16.4505 26.3499 17.1255 26.3499 17.9505V29.0505C26.3499 34.4755 21.9249 38.9005 16.4999 38.9005H16.2999C13.6999 38.9005 11.2499 37.9005 9.39985 36.0505C8.82485 35.4505 7.87485 35.4755 7.27485 36.0505Z" fill="url(#paint1_linear_816_957)"/>
<path d="M37.7003 6.15074C33.6753 2.20074 28.3503 0.000732422 22.7503 0.000732422H22.4253C10.6253 0.000732422 1.05029 9.57575 1.05029 21.3508V36.1008C1.05029 37.3508 2.05029 38.3508 3.30029 38.3508C4.55029 38.3508 5.55029 37.3508 5.55029 36.1008V21.3508C5.55029 12.0508 13.1253 4.50074 22.4003 4.50074H22.7503C27.1753 4.50074 31.3753 6.22574 34.5503 9.37575C35.4253 10.2508 36.8503 10.2258 37.7253 9.35075C38.6003 8.45075 38.6003 7.02575 37.7003 6.15074Z" fill="url(#paint2_linear_816_957)"/>
<path d="M35.0746 11.3999C33.8246 11.3999 32.8246 12.3999 32.8246 13.6499V28.3999C32.8246 37.6749 25.2746 45.25 15.9746 45.25H15.6496C11.2246 45.25 7.02465 43.525 3.84965 40.375C2.97465 39.5 1.54965 39.525 0.674646 40.4C-0.200354 41.275 -0.175354 42.7 0.699646 43.575C4.72465 47.55 10.0496 49.725 15.6746 49.725H15.9996C27.7746 49.725 37.3496 40.15 37.3496 28.3749V13.6249C37.3246 12.3999 36.2996 11.3999 35.0746 11.3999Z" fill="url(#paint3_linear_816_957)"/>
<defs>
<linearGradient id="paint0_linear_816_957" x1="27.2885" y1="47.2826" x2="14.6802" y2="4.81257" gradientUnits="userSpaceOnUse">
<stop offset="0.3505" stop-color="#405FFF"/>
<stop offset="0.9991" stop-color="#BC75FF"/>
</linearGradient>
<linearGradient id="paint1_linear_816_957" x1="24.2404" y1="48.1882" x2="11.6321" y2="5.71819" gradientUnits="userSpaceOnUse">
<stop offset="0.3505" stop-color="#405FFF"/>
<stop offset="0.9991" stop-color="#BC75FF"/>
</linearGradient>
<linearGradient id="paint2_linear_816_957" x1="27.2481" y1="47.2957" x2="14.6398" y2="4.82568" gradientUnits="userSpaceOnUse">
<stop offset="0.3505" stop-color="#405FFF"/>
<stop offset="0.9991" stop-color="#BC75FF"/>
</linearGradient>
<linearGradient id="paint3_linear_816_957" x1="24.6745" y1="48.0745" x2="12.0662" y2="5.60447" gradientUnits="userSpaceOnUse">
<stop offset="0.3505" stop-color="#405FFF"/>
<stop offset="0.9991" stop-color="#BC75FF"/>
</linearGradient>
</defs>
</svg>
